<?xml version="1.0" encoding="utf-8" ?>
<svg baseProfile="full" height="100%" version="1.1" viewBox="-59.5,-38.5,198.0,82.0" width="100%" xmlns="http://www.w3.org/2000/svg" xmlns:ev="http://www.w3.org/2001/xml-events" xmlns:xlink="http://www.w3.org/1999/xlink"><defs /><g fill="white" id="lines" stroke="black" stroke-width="0.5"><polygon fill="#ffc2c2" points="0.0,10.0 20.0,10.0 20.0,-10.0 0.0,-10.0" /><polygon fill="#c2caff" points="20.0,4.0 40.0,4.0 40.0,-4.0 20.0,-4.0" /><polygon fill="#c2caff" points="39.503861061643164,3.969111506854671 59.503861061643164,6.469111506854671 60.496138938356836,-1.4691115068546712 40.496138938356836,-3.969111506854671" /><polygon fill="#c2caff" points="61.96104495853024,5.986302148498197 100.98052247926512,-18.2568489257509 99.01947752073488,-21.7431510742491 58.03895504146976,-0.9863021484981971" /><polygon fill="#c2caff" points="100.63245553203367,-18.10263340389897 130.31622776601682,-29.05131670194949 129.68377223398318,-30.94868329805051 99.36754446796633,-21.89736659610103" /><polygon fill="#c2caff" points="59.15915900750461,4.854354778987093 94.15915900750461,17.354354778987094 95.84084099249539,12.645645221012906 60.84084099249539,0.1456452210129064" /><polygon fill="#c2caff" points="93.43826238111393,16.952172023607577 119.37530495244557,35.780868809443035 120.62469504755443,34.219131190556965 96.56173761888607,13.047827976392423" /><polygon fill="#c2caff" points="96.1180339887499,17.23606797749979 115.44721359549996,5.894427190999916 114.55278640450004,4.105572809000084 93.8819660112501,12.76393202250021" /><polygon fill="#c2caff" points="114.68377223398318,5.948683298050515 129.68377223398318,10.948683298050515 130.31622776601682,9.051316701949485 115.31622776601682,4.051316701949486" /><polygon fill="gray" points="0.0,-10.0 -35.0,-1.9999999999999996 -35.0,1.9999999999999996 0.0,10.0" /><polygon fill="gray" points="-35.0,-2.0 -50.0,-2.0 -50.0,2.0 -35.0,2.0" /></g><g fill="red" id="points" stroke="red" stroke-width="0.5" /><g alignment-baseline="middle" id="numbers" text-anchor="middle" /></svg>